<svg xmlns="http://www.w3.org/2000/svg" xml:space="preserve" baseProfile="tiny" overflow="visible" version="1.2" viewBox="0 0 48 48"><path fill="#6C170F" d="M2.4 34.4c2.4 9.6 12.1 15.4 21.7 13 6.8-1.7 11.8-6.5 14-13l8-34.4-21.2 13.1v-11L8.6 16C3.3 20.3.7 27.4 2.4 34.4z"/><path fill="#B22F24" fill-opacity=".24" d="M2.4 34.4c2.4 9.6 12.1 15.4 21.7 13 6.8-1.7 11.8-6.5 14-13l8-34.4-21.2 13.1S.7 27.4 2.4 34.4z"/><path fill="#EFAD41" d="m14.5 20 8 2.1 6.2-2.3 6.7-.1-1.5 8.7c-.6 4.7-2.7 9.9-4.6 10.9-2.8 1.5-4.7 2.2-7.5 3.7l-7.6-.7c-.6-.1-1-.4-1.4-.9-1.6-1.9-3.1-3.8-4.7-5.7-.6-.7-.8-1.4-.8-2.3 0 0-.1-5.3.6-6.9.6-1.5 2.7-3.5 2.7-3.5s1.8-1.4 3.9-3z"/><path fill="#DD8431" d="M33.9 28.3c-.6 4.7-2.7 9.9-4.6 10.9-2.8 1.5-4.7 2.2-7.5 3.7l-3.9-.4-3.7-.3c-.6-.1-1-.4-1.4-.9-1.6-1.9-3.1-3.8-4.7-5.7-.6-.7-.8-1.4-.8-2.3 1.6-4 26.7-5.3 26.6-5z"/><path fill="#6C170F" d="M14.3 26.3c-1.2.9-2.8 3.3-2.4 4.8.6 2.3 2.8 6.4 5 6.9 2.1.4 6.1-3.2 7.7-4.8 1.6-1.7 3.5-4.2 1.7-5.7-.2-.2-3.9-1-4-1.1-3.9 1.5-2.8 1.3-8-.1z"/><path fill="#31130F" d="M14.3 27.3c5.2 1.4 4.1 1.7 7.9 0 .2.1 3.9 1 4 1.1.3.3.5.6.6 1 .2-.7 0-1.4-.6-2-.2-.2-3.9-1-4-1.1-3.8 1.6-2.7 1.4-7.9 0-1.2.9-2.8 3.3-2.4 4.8.2-1.4 1.4-3.1 2.4-3.8z"/></svg>